<svg width="209" height="54" viewBox="0 0 209 54" xmlns="http://www.w3.org/2000/svg"><title>powered-by</title><path d="M7.12.35h37.926c3.733 0 6.78 3.121 6.78 6.982v39.071c0 3.845-3.031 6.981-6.78 6.981H7.12c-3.733 0-6.78-3.12-6.78-6.98V7.315C.34 3.47 3.372.35 7.12.35zm19.557 13.4c-8.03 0-14.543 6.708-14.543 14.992 0 8.283 6.514 14.975 14.543 14.975 8.028 0 14.542-6.708 14.542-14.992S34.721 13.75 26.677 13.75zm0 25.544c-5.655 0-10.247-4.73-10.247-10.552 0-5.823 4.592-10.552 10.247-10.552 5.654 0 10.246 4.729 10.246 10.552 0 5.822-4.576 10.552-10.246 10.552zm0-18.949v7.866c0 .225.234.386.437.273l6.78-3.619c.155-.08.202-.273.124-.434-1.406-2.542-4.014-4.28-7.03-4.392a.314.314 0 0 0-.311.306zm-9.498-5.775l-.89-.917a2.18 2.18 0 0 0-3.155 0l-1.062 1.094a2.34 2.34 0 0 0 0 3.25l.874.9c.14.145.344.113.469-.032a17.583 17.583 0 0 1 1.703-2.059c.64-.66 1.296-1.238 2.015-1.77.156-.096.171-.32.046-.466zm14.262-2.38v-1.818c0-1.27-1-2.3-2.234-2.3h-5.202c-1.234 0-2.233 1.03-2.233 2.3v1.866c0 .21.187.354.39.306a15.84 15.84 0 0 1 4.53-.66c1.484 0 2.952.21 4.374.611a.305.305 0 0 0 .375-.305zm97.627 28.728c0 4.295-1.063 7.432-3.203 9.426-2.14 1.995-5.404 2.992-9.81 2.992-1.608 0-4.95-.322-7.622-.933l.984-4.986c2.234.482 5.186.61 6.733.61 2.452 0 4.202-.514 5.248-1.543 1.047-1.03 1.562-2.558 1.562-4.585v-1.03c-.61.307-1.406.612-2.39.934-.984.305-2.124.466-3.405.466-1.687 0-3.218-.273-4.608-.82-1.39-.547-2.593-1.351-3.577-2.413-.984-1.061-1.765-2.397-2.312-3.989-.547-1.592-.828-4.44-.828-6.53 0-1.963.297-4.424.875-6.065.594-1.64 1.437-3.056 2.577-4.23 1.125-1.175 2.5-2.075 4.108-2.735a14.668 14.668 0 0 1 5.546-1.078c1.983 0 3.811.258 5.592.563 1.78.306 3.296.628 4.53.982v24.964zm28.99-12.418c0 2.124-.296 3.732-.905 5.485-.61 1.754-1.468 3.25-2.577 4.488a11.352 11.352 0 0 1-4 2.88c-1.561.675-3.967 1.061-5.17 1.061-1.202-.016-3.592-.37-5.139-1.062-1.546-.691-2.874-1.64-3.983-2.879-1.109-1.238-1.968-2.734-2.593-4.488-.625-1.753-.937-3.361-.937-5.485 0-2.123.281-4.166.906-5.903.625-1.737 1.5-3.217 2.624-4.456a11.745 11.745 0 0 1 3.999-2.863c1.546-.676 3.249-.997 5.092-.997 1.843 0 3.546.338 5.108.997 1.562.676 2.905 1.625 3.999 2.863 1.109 1.239 1.968 2.719 2.593 4.456.656 1.737.984 3.78.984 5.903zm13.606 13.914c-10.012.048-10.012-8.332-10.012-9.667l-.016-29.726 6.108-.997v29.532c0 .756 0 5.55 3.92 5.566v5.292zm10.763 0h-6.14V15.262l6.14-.997v28.15zm-3.078-31.125c2.047 0 3.718-1.705 3.718-3.812 0-2.107-1.656-3.813-3.718-3.813-2.061 0-3.717 1.706-3.717 3.813s1.671 3.812 3.717 3.812zm18.339 2.992c2.015 0 3.717.257 5.092.772 1.374.515 2.483 1.238 3.296 2.155.812.917 1.39 2.172 1.734 3.49.359 1.32.53 2.768.53 4.36V41.24c-.937.209-2.358.45-4.264.74-1.905.29-4.045.434-6.42.434-1.577 0-3.03-.16-4.326-.466-1.313-.306-2.422-.805-3.359-1.496-.921-.692-1.64-1.577-2.171-2.67-.515-1.094-.781-2.639-.781-4.247 0-1.544.297-2.525.875-3.587a7.543 7.543 0 0 1 2.39-2.606c1.015-.675 2.17-1.158 3.499-1.448a19.487 19.487 0 0 1 4.155-.434c.671 0 1.374.048 2.124.129.75.08 1.53.225 2.374.434v-1.03c0-.723-.078-1.415-.25-2.058a4.462 4.462 0 0 0-.874-1.721c-.422-.5-.969-.885-1.656-1.159a7.03 7.03 0 0 0-2.609-.482c-1.406 0-2.686.177-3.858.386-1.172.209-2.14.45-2.874.724l-.734-5.164c.765-.273 1.905-.547 3.374-.82a25.834 25.834 0 0 1 4.733-.418zm-120.105.16c2.015 0 3.718.258 5.092.773 1.375.514 2.484 1.238 3.296 2.155.828.933 1.39 2.172 1.734 3.49.36 1.32.531 2.767.531 4.36V41.4c-.937.209-2.359.45-4.264.74-1.906.29-4.046.434-6.42.434-1.578 0-3.03-.16-4.327-.467-1.312-.305-2.421-.804-3.358-1.495-.922-.692-1.64-1.577-2.172-2.67-.515-1.094-.78-2.639-.78-4.247 0-1.544.296-2.526.874-3.587a7.543 7.543 0 0 1 2.39-2.606c1.015-.676 2.171-1.158 3.499-1.448a19.487 19.487 0 0 1 4.155-.434c.672 0 1.375.048 2.124.129.735.08 1.531.225 2.375.434v-1.03c0-.723-.078-1.415-.25-2.058a4.462 4.462 0 0 0-.875-1.722c-.422-.498-.968-.884-1.656-1.158a7.03 7.03 0 0 0-2.608-.482c-1.406 0-2.687.177-3.859.386-1.171.209-2.14.45-2.874.724l-.734-5.164c.766-.273 1.906-.547 3.374-.82 1.468-.29 3.046-.418 4.733-.418zm25.29 27.973c-10.013.048-10.013-8.332-10.013-9.667L92.844 3.02l6.108-.997v29.532c0 .756 0 5.55 3.92 5.566v5.292zm95.33-5.308c1.875 0 3.265-.113 4.233-.306v-6.402a14.148 14.148 0 0 0-3.593-.466c-.671 0-1.358.048-2.046.16a6.018 6.018 0 0 0-1.859.564c-.546.273-1 .66-1.327 1.158-.344.498-.5.788-.5 1.544 0 1.48.5 2.332 1.406 2.895.921.58 2.14.853 3.686.853zm-46.392-8.59c0-2.718-.578-4.986-1.703-6.562-1.124-1.593-2.702-2.381-4.717-2.381-2.015 0-3.593.788-4.717 2.38-1.125 1.593-1.672 3.845-1.672 6.563 0 2.75.562 4.6 1.687 6.193 1.125 1.609 2.702 2.397 4.717 2.397 2.015 0 3.593-.804 4.718-2.397 1.124-1.608 1.687-3.442 1.687-6.193zm-39.723-.016c0 2.638.563 5.566 1.687 6.788 1.125 1.223 2.578 1.834 4.358 1.834.969 0 1.89-.145 2.75-.418.859-.274 1.546-.595 2.093-.981v-15.62c-.438-.096-2.265-.482-4.03-.53-2.218-.064-3.905.868-5.093 2.364-1.171 1.496-1.765 4.118-1.765 6.563zm-33.974 8.783c1.875 0 3.265-.113 4.233-.306v-6.402a14.148 14.148 0 0 0-3.593-.466c-.671 0-1.358.048-2.046.16a6.018 6.018 0 0 0-1.858.564c-.547.273-1 .66-1.328 1.158-.344.498-.5.788-.5 1.544 0 1.48.5 2.332 1.406 2.895.906.563 2.14.853 3.686.853z" fill="#FFF" fill-rule="evenodd"/></svg>